<svg xmlns="http://www.w3.org/2000/svg" width="14.782" height="16.514" viewBox="0 0 14.782 16.514">
  <g id="user" transform="translate(-24.165)">
    <g id="Group_7130" data-name="Group 7130" transform="translate(27.269)">
      <g id="Group_7129" data-name="Group 7129" transform="translate(0)">
        <path id="Path_17645" data-name="Path 17645" d="M115.079,0a4.288,4.288,0,1,0,4.288,4.288A4.3,4.3,0,0,0,115.079,0Z" transform="translate(-110.791)" fill="#f88808"/>
      </g>
    </g>
    <g id="Group_7132" data-name="Group 7132" transform="translate(24.165 8.882)">
      <g id="Group_7131" data-name="Group 7131" transform="translate(0)">
        <path id="Path_17646" data-name="Path 17646" d="M38.915,250.96a4,4,0,0,0-.431-.786,5.33,5.33,0,0,0-3.689-2.322.789.789,0,0,0-.543.131,4.57,4.57,0,0,1-5.392,0,.7.7,0,0,0-.543-.131,5.291,5.291,0,0,0-3.689,2.322,4.609,4.609,0,0,0-.431.786.4.4,0,0,0,.019.356,7.469,7.469,0,0,0,.506.749,7.116,7.116,0,0,0,.861.974,11.226,11.226,0,0,0,.861.749,8.538,8.538,0,0,0,10.186,0,8.233,8.233,0,0,0,.861-.749,8.645,8.645,0,0,0,.861-.974,6.563,6.563,0,0,0,.506-.749A.32.32,0,0,0,38.915,250.96Z" transform="translate(-24.165 -247.841)" fill="#f88808"/>
      </g>
    </g>
  </g>
</svg>
