<svg xmlns="http://www.w3.org/2000/svg" width="23.917" height="21.661" viewBox="0 0 23.917 21.661">
  <g id="shopping-cart-2030" transform="translate(126.036 69.272)">
    <g id="Group_8394" data-name="Group 8394" transform="translate(-126.036 -69.272)">
      <path id="Path_18510" data-name="Path 18510" d="M49.388,92.518H63.965a1.439,1.439,0,0,0,1.318-1.2l1.551-6.368a1.055,1.055,0,0,0-.851-1.382H47.474Z" transform="translate(-42.955 -80.488)" fill="#fff"/>
      <path id="Path_18511" data-name="Path 18511" d="M20.655,72.92H7.031a.417.417,0,0,1-.379-.364L3.738,58.622a1.016,1.016,0,0,0-.923-.887H.391a.5.5,0,0,1,0-.972H2.815A1.85,1.85,0,0,1,4.5,58.378l2.838,13.57H20.655a.5.5,0,0,1,0,.972Z" transform="translate(0 -56.764)" fill="#fff"/>
      <circle id="Ellipse_86" data-name="Ellipse 86" cx="2.106" cy="2.106" r="2.106" transform="translate(7.592 17.449)" fill="#fff"/>
      <circle id="Ellipse_87" data-name="Ellipse 87" cx="2.106" cy="2.106" r="2.106" transform="translate(16.039 17.449)" fill="#fff"/>
    </g>
  </g>
</svg>
